<svg xmlns="http://www.w3.org/2000/svg"><symbol id="alert" viewBox="0 0 200 200"><path d="M158.3 171.4H41.5a21.6 21.6 0 0 1-18.6-32.3L81.3 37.8a21.6 21.6 0 0 1 37.3 0L177 139.1a21.6 21.6 0 0 1-18.7 32.3zM99.9 39.6a9.1 9.1 0 0 0-7.8 4.5L33.7 145.4a9 9 0 0 0 7.8 13.5h116.8a8.9 8.9 0 0 0 7.8-4.5 8.6 8.6 0 0 0 0-9L107.8 44.1a9.1 9.1 0 0 0-7.9-4.5z"/><path d="M104.7 76.5c3.9 0 3.9 2.9 3.9 5.8 0 10.1-1.7 18.5-2.3 30.6a20.2 20.2 0 0 0-.1 2.3c-.4 7.1-.5 7.8-4.5 7.8h-3.4c-4.1 0-4.1-.7-4.6-7.5 0-1.2-.1-1.9-.1-2.6-.7-12.2-2.3-20.5-2.3-30.6 0-2.9 0-5.8 3.8-5.8zm-8.5 68.2c-1.7 0-4.4 0-4.4-3.8v-9.6c0-3.8 2.7-3.9 4.4-3.9h4.9c6.5 0 7 .8 7 9.7s-.7 7.6-4.1 7.6z"/></symbol><symbol id="contact" viewBox="0 0 200 200"><path d="M148.2 117.5A58 58 0 0 0 124 98.8a41.9 41.9 0 1 0-48.8-.7 54.5 54.5 0 0 0-25 19.6c-9.6 13.4-14.6 32.2-14.6 54.3v6.5h128.9V172c0-21.8-5.6-40.7-16.3-54.5zm-78-53a30 30 0 1 1 29.3 29.6h-1.6a24.9 24.9 0 0 1-4.7-.4 29.9 29.9 0 0 1-23-29.2zm-21.5 101c1.2-21.6 9.2-58.5 49.9-58.5 24.4 0 50.4 15.5 52.8 58.5z"/></symbol><symbol id="cart" viewBox="0 0 200 200"><path d="M87.6 139.5c-7.9 0-14.2-3.7-18.2-10.8-2.8-5-16.9-66.1-20.5-78.1-.7-2.1-1.1-6.8-6.8-6.9-3.8-.1-16.2 0-16.2 0a6.3 6.3 0 0 1-5.9-8.3 6.2 6.2 0 0 1 5.9-4.2s15.3.1 19.1 0h.1a13 13 0 0 1 12.1 7.2c.8 1.7 1.6 3.5 2.3 5.4a5.4 5.4 0 0 0 5 3.5h104.3c1.5 0 6 0 8.8 3.5s1.7 8 1.3 9.4q-6 24.5-12.1 48.7c-1.5 6.2-4.6 8.6-11 8.6H80.5c-.8 0-1.4 2.8-1 3.6l.7 1.5c1.8 3.2 4 4.5 7.4 4.5h63a6.2 6.2 0 1 1 0 12.4zm-10.7-34.4h76.5a2.2 2.2 0 0 0 2-1.6l10.2-41.2a2 2 0 0 0-2-2.6h-97a2.1 2.1 0 0 0-2 2.6l10.3 41.2a2 2 0 0 0 2 1.6zM93.6 165a9.7 9.7 0 0 0 9.7-9.6 9.8 9.8 0 0 0-9.7-9.6 9.6 9.6 0 0 0-9.5 9.6 9.4 9.4 0 0 0 9.5 9.6zm42.7 0a9.6 9.6 0 1 0-9.5-9.6 9.5 9.5 0 0 0 9.5 9.6z"/></symbol><symbol id="down" viewBox="0 0 200 200"><path d="M21 100.2a79.4 79.4 0 1 1 79.3 79.4A79.5 79.5 0 0 1 21 100.2zm144.7 0a65.4 65.4 0 1 0-65.4 65.4 65.5 65.5 0 0 0 65.4-65.4z"/><path d="M58 86.5a7.3 7.3 0 0 1 2-4.9 7.1 7.1 0 0 1 9.9 0l30.4 30.4 30.4-30.4a7.1 7.1 0 0 1 9.9 0 6.9 6.9 0 0 1 0 9.9l-35.3 35.3a6.9 6.9 0 0 1-9.9 0L60 91.5a7.4 7.4 0 0 1-2-5z"/></symbol><symbol id="email" viewBox="0 0 200 200"><path d="M32.2 155.4a5.7 5.7 0 0 1-4.2-5.3V52.2c0-3.8 2.3-6.2 6.1-6.1l132.3.7c3.8 0 6.1 2.3 6.1 6.1 0 32.7-.1 63.5 0 96.3a6.1 6.1 0 0 1-6.4 6.4c-22.3-.1-133.1 0-133.9-.2zm121.7-13.6q-17.1-19.8-33.7-39.4c-1.4-1.6-4.7-1.3-6.3.1l-11.3 9.4c-2.6 2.2-4.4 1.3-7-.9l-9.9-8.1c-1.6-1.3-4.3-.5-5.7 1L46.5 142c-1.7 1.9-1 3.1 1.2 3.1h105.4c1.5 0 2.7-1 .8-3.3zM102 99.2L150.6 59a1.1 1.1 0 0 0-.7-1.9l-99.5-.5a1.1 1.1 0 0 0-.7 1.9c7.5 6.5 32.4 27.7 47.4 40.7a3.8 3.8 0 0 0 4.9 0zm-30.3-8.9L40.3 63c-.7-.6-1.9 1.7-1.9 2.6v67.3a1.1 1.1 0 0 0 2 .7c10.6-12.1 23-25.8 33.5-37.9 1.5-1.6-.6-4-2.2-5.4zm55.3 5.3l33 38.4c1.3 1.5 2.1-.5 2.1-1.5V66c0-.9-2.1-2.3-2.8-1.7l-30.9 25.9c-1.6 1.4-2.8 3.8-1.4 5.4z"/></symbol><symbol id="facebook" viewBox="0 0 200 200"><path d="M137 21.3l-4.6-.4c-10.5-1-21.3-2-32.4 2-13.2 4.7-21.6 15-23.8 28.8a136.6 136.6 0 0 0-1.2 19c-.1 1.6-.1 3.2-.1 4.8H73l-12.8-.2a9.3 9.3 0 0 0-6.4 2.5 8.8 8.8 0 0 0-2.6 6.3c0 7.2-.1 14.8-.2 22.6a8.3 8.3 0 0 0 2.2 6.4 8.5 8.5 0 0 0 6.3 2.4h14.9c-.2 17.8-.5 44.6-.5 52.8A11.4 11.4 0 0 0 85.3 180h18.1a11.5 11.5 0 0 0 11.5-11.3c.1-10.6.4-36 .6-52.7h15a8.5 8.5 0 0 0 6.4-2.3c1.6-1.6 2.1-3.9 2.4-6.7 1.1-7.6 1.9-14.8 3.1-21.5.6-3.4-.2-5.6-1.3-6.9s-5.5-2.7-6.6-2.7h-.2l-14.8-.2h-3.6c0-.8.1-1.5.1-2.3a114.7 114.7 0 0 1 .5-11.9c.2-1.6.6-2.8 3.6-2.9s9.1-.1 14.5.1a9.8 9.8 0 0 0 7.1-2.4 9.2 9.2 0 0 0 2.5-6.8c-.1-4.5 0-9 0-13.4.1-2 .1-4 .1-6v-.2c.2-7.6-6.1-8.5-7.3-8.6zm-5 14.8c0 2.8-.1 5.6-.1 8.5a1.9 1.9 0 0 1-2 1.9h-10.1c-8.6.2-14.6 5.5-15.5 13.8-.4 4.4-.5 8.8-.6 13v3.3c-.1 3.3-.2 6.4 2.2 8.9s5.4 2.5 8.8 2.6h11.9A2.3 2.3 0 0 1 129 91c-.3 3.6-.9 7.2-1.5 10.8a2.3 2.3 0 0 1-2.4 2h-12.4a8.8 8.8 0 0 0-6.9 2.2 9.1 9.1 0 0 0-2.6 6.8c-.1 14.1-.3 36.7-.5 50a5 5 0 0 1-5.1 5h-6.4a4.9 4.9 0 0 1-5-5.1c.1-12.4.3-36 .5-50.6a8.3 8.3 0 0 0-2.3-6.3 8.6 8.6 0 0 0-6.4-2.4c-2.9.1-5.9 0-8.8 0h-3.8a2.1 2.1 0 0 1-2.1-2.1c.1-3.8.1-7.6.1-11.3a2.1 2.1 0 0 1 2.2-2.1h11.8c6.6.1 9.3-2.6 9.6-9.1v-.2c.1-2.5.2-5.1.2-7.5a138.9 138.9 0 0 1 1.1-17.4c1.5-9.5 6.8-15.9 15.8-19.2s17.1-2.2 26.4-1.4a1.6 1.6 0 0 1 1.5 1.7z"/></symbol><symbol id="favourite" viewBox="0 0 200 200"><path d="M135.4 28.8A44.5 44.5 0 0 0 100 46.5a44.4 44.4 0 0 0-79.8 26.7c0 11.7 4.2 21.1 14.3 32.5.8.9 50.8 50.7 61.2 61.1l.2.2h.1a5.9 5.9 0 0 0 4 1.5 5.7 5.7 0 0 0 4.1-1.7l58.3-58.2c8.4-8.4 17.4-22.2 17.4-35.5a44.4 44.4 0 0 0-44.4-44.3zm32.9 44.4c0 9-4.5 17.7-14.1 27.3l-52.4 52.2a2.5 2.5 0 0 1-3.6 0l-54-52.9-.2-.2C41.1 97 31.7 87.1 31.7 73.2a32.9 32.9 0 0 1 32.9-32.9c5.8 0 20.4 2 31.3 20.6a4.7 4.7 0 0 0 4.4 2.4 4.9 4.9 0 0 0 4-2.4c4-6.3 14.8-20.6 31.1-20.6a32.9 32.9 0 0 1 32.9 32.9z"/></symbol><symbol id="home" viewBox="0 0 200 200"><path d="M174.2 90.1L111 27.5a17.1 17.1 0 0 0-24.1 0L24.7 90.1a16.9 16.9 0 0 0-4.9 12v58.3a17.1 17.1 0 0 0 17 17.1h31.7a17.4 17.4 0 0 0 17.4-17.4v-37.4a5 5 0 0 1 5.1-5h17.1a5 5 0 0 1 5 5v37.4a17.4 17.4 0 0 0 17.4 17.4h31.7a17.2 17.2 0 0 0 17.1-17.1v-58.2a17.1 17.1 0 0 0-5.1-12.1zm-66.1 15.6H91a17.1 17.1 0 0 0-17.1 17v37.4a5.4 5.4 0 0 1-5.4 5.4H36.8a5.1 5.1 0 0 1-5.1-5.1v-58.3a5.1 5.1 0 0 1 1.5-3.6L95.4 36a5.1 5.1 0 0 1 7.2 0l63.2 62.6a4.8 4.8 0 0 1 1.5 3.6v58.2a5.1 5.1 0 0 1-5.1 5.1h-31.7a5.4 5.4 0 0 1-5.4-5.4v-37.4a17 17 0 0 0-17-17z"/></symbol><symbol id="instagram" viewBox="0 0 200 200"><path d="M171 68.8c-.4-9.4-2.8-18.2-8.9-25.7a57.8 57.8 0 0 0-5-4.9 30.6 30.6 0 0 0-9.9-6 70.8 70.8 0 0 0-21.8-3.7c-12.2-.3-24.3-.2-36.4-.2-8.9 0-17.8-.1-26.6 1.2C43.8 32.2 30.8 45.9 29 64.7c-1.2 12.9-.8 25.9-.8 38.9 0 10.4-.2 20.7.8 31 1.8 20.3 16 34.5 36.2 36.2 7.7.7 15.4.8 23.1.8 15.5-.1 31 .7 46.5-.8 10.6-1 19.8-5.1 26.8-13.4a32.4 32.4 0 0 0 6-9.9c2.9-7.1 3.6-14.5 3.7-21.9.3-18.9.6-37.9-.3-56.8zm-36.1 88.9a124.7 124.7 0 0 1-18.3.9c-13.5.1-27 0-40.5-.1a57.6 57.6 0 0 1-12.5-.9c-4.8-1-9.4-2.6-13.3-6.2s-7.3-10.4-8.2-17a95.3 95.3 0 0 1-.8-14.1c-.1-6.8-.1-13.5-.2-20.3s0-15.9.3-23.9c.1-5.6.3-11.2 2-16.6 2.9-8.8 9-14.1 17.8-16.5 5.6-1.5 11.3-1.5 16.9-1.6 15.2-.1 30.3 0 45.5.1a59 59 0 0 1 14.5 1.4c10.7 2.7 17 9.6 19.1 20.3 1.3 6.6 1.3 13.2 1.3 19.9 0 13.6 0 27.2-.2 40.7-.1 7.1-.4 14.1-3.5 20.7s-11.2 11.9-19.9 13.2z"/><path d="M131 80.3a36.8 36.8 0 0 0-41-15.9c-14.8 4-26.5 18.2-26.9 32.9a35.6 35.6 0 0 0 7.1 24.6c8.9 11.6 20.9 16.6 35.4 14.4 11.7-1.7 20.5-8.1 26.4-18.4a27.6 27.6 0 0 0 3.8-10 35.4 35.4 0 0 0-4.8-27.6zm-47.3 37.2c-5.9-5.4-8.2-12.3-7.6-20.2s5.5-14.8 13.1-18.6 17.6-3.4 25.5 2.7a23.6 23.6 0 0 1 6.7 28.8c-7.7 14.7-25.5 18.2-37.7 7.3zm54.4-47.2a8.6 8.6 0 0 0 8.7-8.6 8.8 8.8 0 0 0-8.7-8.7 8.7 8.7 0 0 0-8.6 8.7 8.4 8.4 0 0 0 8.6 8.6z"/></symbol><symbol id="left" viewBox="0 0 200 200"><path d="M100.3 20.8A79.4 79.4 0 1 1 21 100.2a79.5 79.5 0 0 1 79.3-79.4zm0 144.8A65.4 65.4 0 1 0 35 100.2a65.4 65.4 0 0 0 65.3 65.4z"/><path d="M114 57.9a7.4 7.4 0 0 1 5 2 7.1 7.1 0 0 1 0 9.9l-30.4 30.4 30.4 30.4a7 7 0 1 1-9.9 9.9l-35.4-35.3a7.1 7.1 0 0 1 0-9.9l35.4-35.4a7 7 0 0 1 4.9-2z"/></symbol><symbol id="location" viewBox="0 0 200 200"><path d="M100.5 180a8.7 8.7 0 0 1-7-3.6c-4.4-6-19.4-26.8-26.6-38.9-9.7-16.1-15.8-29.1-20-42.2s-4-27.1 1.2-39.9a56.2 56.2 0 0 1 45.8-34.7l2.6-.3 1.4-.2h6.7l2.6.3a55.2 55.2 0 0 1 36.9 20c10.5 12.6 14.7 27.4 12.6 44.1a71.8 71.8 0 0 1-3.3 13.1 172.6 172.6 0 0 1-11.9 26.9c-8.8 16.3-28.2 43.6-33.9 51.6a8.9 8.9 0 0 1-7 3.6zm-2-147.4h-.8l-2.4.2a44.5 44.5 0 0 0-35.7 27.3c-4.2 10.2-4.5 20.4-.9 31.5s9.6 24.3 18.8 39.6c5.1 8.5 14.3 21.6 20.6 30.5a2.9 2.9 0 0 0 4.8-.1c7.8-11 21.1-30.5 27.7-42.7a144.3 144.3 0 0 0 11-24.9 52.2 52.2 0 0 0 2.8-10.8c1.7-13.3-1.5-24.6-9.8-34.6s-17-14.2-28.9-15.7l-2.3-.2h-4.9zm2.1 75.3a30.9 30.9 0 0 1-31-30.9 31.1 31.1 0 0 1 31-31 31 31 0 0 1 0 61.9zm0-49.5a18.6 18.6 0 1 0 0 37.2 18.6 18.6 0 1 0 0-37.2z"/></symbol><symbol id="phone" viewBox="0 0 200 200"><path d="M126.2 180a61.2 61.2 0 0 1-21.3-3.9 92.1 92.1 0 0 1-22.8-12.5A145.5 145.5 0 0 1 69.4 153c-4.3-4.1-8.6-8.5-13.1-13.6s-7.8-9.3-11.2-13.9a152 152 0 0 1-9.4-14.3A109.4 109.4 0 0 1 26.8 91a79.6 79.6 0 0 1-2.6-12.1 52.4 52.4 0 0 1-.4-11.8 55.1 55.1 0 0 1 4.1-17.8 51.3 51.3 0 0 1 8.2-13.2 50.1 50.1 0 0 1 7.8-7.3l2.8-2.4 1.7-1.6a19.3 19.3 0 0 1 9.2-4.6 14.6 14.6 0 0 1 9.9 1.9 26.1 26.1 0 0 1 7.7 6.7 90.5 90.5 0 0 1 6 8.7l1.4 2.2a78.3 78.3 0 0 1 4.7 8.1 32.8 32.8 0 0 1 3 9.4 19.1 19.1 0 0 1-5 16.4 37.5 37.5 0 0 1-3.6 3.4l-1.9 1.7a29.9 29.9 0 0 1-4.2 3.4l-1.9 1.3a5 5 0 0 0-2 2.8 5.8 5.8 0 0 0 0 3.2 25.5 25.5 0 0 0 3 7.7 82.7 82.7 0 0 0 8.5 12 137.3 137.3 0 0 0 10.6 11.5 45.9 45.9 0 0 0 9.9 7.5 11.3 11.3 0 0 0 5.2 1.6 4 4 0 0 0 2.8-1 10.6 10.6 0 0 0 1.5-1.5l1.3-1.3h.2l3.5-3.3.3-.2c1.5-1.3 3-2.7 4.8-4a18.6 18.6 0 0 1 9.8-3.8 21.8 21.8 0 0 1 9.9 1.4 37.1 37.1 0 0 1 9.8 5.9c2.8 2.2 5.7 4.7 8.8 7.5s3.6 3.3 5.4 5.1a23.7 23.7 0 0 1 5.5 8.6 14.9 14.9 0 0 1-2.6 15.1c-1.2 1.4-2.5 2.5-3.6 3.6l-.9.8-2.4 2.2-2.1 1.8a43.5 43.5 0 0 1-9.4 6.8 49.5 49.5 0 0 1-14.6 5.5 52.4 52.4 0 0 1-10.7 1.1zM60 32h-.4a6.4 6.4 0 0 0-3.3 1.8l-1.6 1.4c-1.1 1-2.2 2-3.5 3a54.8 54.8 0 0 0-6 5.6A36.2 36.2 0 0 0 39 54a42.3 42.3 0 0 0-3.3 13.9 50.4 50.4 0 0 0 .4 9.4 63.1 63.1 0 0 0 2.2 10.1 91 91 0 0 0 7.9 17.8 128.3 128.3 0 0 0 8.6 13.2c3.2 4.3 6.6 8.6 10.5 13a169.8 169.8 0 0 0 12.3 12.8 135.5 135.5 0 0 0 11.6 9.7 78.3 78.3 0 0 0 19.8 10.9 49.8 49.8 0 0 0 17.2 3.2 37 37 0 0 0 8.3-.9 39.6 39.6 0 0 0 11.2-4.1 41.9 41.9 0 0 0 7.1-5.2l2.2-2 2.2-2 1-.9 2.5-2.4a2.9 2.9 0 0 0 .5-3.3 12.4 12.4 0 0 0-2.9-4.4 62.3 62.3 0 0 0-4.6-4.4c-3-2.7-5.8-5-8.5-7.2a25.9 25.9 0 0 0-6.6-4 10.3 10.3 0 0 0-4.4-.7 6.3 6.3 0 0 0-3.7 1.4c-1.4 1-2.7 2.2-4.1 3.4l-.3.3a41.1 41.1 0 0 0-3.1 2.9h-.2a9.4 9.4 0 0 1-1 1 27.1 27.1 0 0 1-2.4 2.3 15.9 15.9 0 0 1-10.6 3.8 22.4 22.4 0 0 1-10.7-2.9 61.6 61.6 0 0 1-12.6-9.5A144.4 144.4 0 0 1 74 116.8a95.1 95.1 0 0 1-9.8-13.9 38 38 0 0 1-4.4-11.4 19.2 19.2 0 0 1 .3-8.3 17 17 0 0 1 6.3-9.3l2.2-1.6a26.1 26.1 0 0 0 3-2.3l2.2-2 2.8-2.6a7.4 7.4 0 0 0 1.8-6.5 19.5 19.5 0 0 0-2-5.9 50.1 50.1 0 0 0-3.9-6.8c-.5-.8-1-1.5-1.4-2.3a73.6 73.6 0 0 0-5.1-7.4 18.7 18.7 0 0 0-4.3-4A3.7 3.7 0 0 0 60 32z"/></symbol><symbol id="right" viewBox="0 0 200 200"><path d="M100.3 179.6a79.4 79.4 0 1 1 79.4-79.4 79.4 79.4 0 0 1-79.4 79.4zm0-144.8a65.4 65.4 0 1 0 65.4 65.4 65.5 65.5 0 0 0-65.4-65.4z"/><path d="M86.7 142.6a7.1 7.1 0 0 1-5-12l30.4-30.4-30.4-30.4a7 7 0 0 1 9.9-9.9L127 95.3a7.1 7.1 0 0 1 0 9.9l-35.4 35.3a6.7 6.7 0 0 1-4.9 2.1z"/></symbol><symbol id="search" viewBox="0 0 200 200"><path d="M174.6 164.5l-52.5-52.4a55.3 55.3 0 0 0 11.7-34.2 55.8 55.8 0 1 0-21.6 44.1l52.5 52.4a6.8 6.8 0 0 0 4.9 2.1 7.1 7.1 0 0 0 5-12zM36.3 77.9a41.8 41.8 0 1 1 41.8 41.8 41.8 41.8 0 0 1-41.8-41.8z"/></symbol><symbol id="star-full" viewBox="0 0 200 200"><path d="M61.4 173.6a17.2 17.2 0 0 1-10-3.2 17.1 17.1 0 0 1-6.8-16.7l5.8-33.7a1.1 1.1 0 0 0-.3-.8L25.6 95.3a17 17 0 0 1 9.5-29l33.8-4.9c.3-.1.6-.2.7-.5l15.1-30.7a17.1 17.1 0 0 1 30.6 0l15.1 30.7c.1.3.4.4.6.5l33.9 4.9a17 17 0 0 1 13.8 11.6 16.8 16.8 0 0 1-4.4 17.4l-24.5 23.9a.8.8 0 0 0-.2.8l5.8 33.7a17 17 0 0 1-24.7 18l-30.3-16h-.8l-30.3 16a17 17 0 0 1-7.9 1.9z"/></symbol><symbol id="star" viewBox="0 0 200 200"><path d="M61.4 173.6a17.2 17.2 0 0 1-10-3.2 17.1 17.1 0 0 1-6.8-16.7l5.8-33.7a1.1 1.1 0 0 0-.3-.8L25.6 95.3a17 17 0 0 1 9.5-29l33.8-4.9c.3-.1.6-.2.7-.5l15.1-30.7a17.1 17.1 0 0 1 30.6 0l15.1 30.7c.1.3.4.4.6.5l33.9 4.9a17 17 0 0 1 13.8 11.6 16.8 16.8 0 0 1-4.4 17.4l-24.5 23.9a.8.8 0 0 0-.2.8l5.8 33.7a17 17 0 0 1-24.7 18l-30.3-16h-.8l-30.3 16a17 17 0 0 1-7.9 1.9zM100 34.7a2.8 2.8 0 0 0-2.7 1.7L82.1 67.1a14.6 14.6 0 0 1-11.2 8.1l-33.8 5a3 3 0 0 0-2.5 2 2.9 2.9 0 0 0 .8 3.1l24.5 23.9a14.9 14.9 0 0 1 4.3 13.1l-5.8 33.8a2.7 2.7 0 0 0 1.2 2.9 3.1 3.1 0 0 0 3.2.3l30.3-16a15.3 15.3 0 0 1 13.8 0l30.3 16a3.1 3.1 0 0 0 3.2-.3 2.9 2.9 0 0 0 1.2-2.9l-5.8-33.8a14.9 14.9 0 0 1 4.3-13.1l24.5-23.9a2.8 2.8 0 0 0 .7-3.1 2.7 2.7 0 0 0-2.4-2l-33.9-5a14.9 14.9 0 0 1-11.2-8.1l-15.1-30.7a2.8 2.8 0 0 0-2.7-1.7z"/></symbol><symbol id="twitter" viewBox="0 0 200 200"><path d="M179.2 51.9c-1.3-1.3-3.4-1.8-6-1.5h-1a19 19 0 0 1-3.7.4l1.4-1.8a20.2 20.2 0 0 0 3-4.6 5.5 5.5 0 0 0-1.4-6.7c-2.2-1.9-4.1-1.4-6.5-.6l-4 1.5a41.5 41.5 0 0 1-6.5 2.1c-.6.2-.6.1-1-.2-10.9-9.7-27.4-12-40.3-5.7C98.8 42 91.5 53.7 91.5 69.6v.3l-1.1-.2-6.9-1.3a83.2 83.2 0 0 1-39.2-20.9c-1.9-1.8-3.8-3.9-5.6-5.9l-2.1-2.3a5.9 5.9 0 0 0-5.2-2 5.6 5.6 0 0 0-4.2 2.9 37.3 37.3 0 0 0-2.9 30.9 44.6 44.6 0 0 0 2.2 5 6.6 6.6 0 0 0-2.4 1.1 5.8 5.8 0 0 0-2.1 4.9 36.8 36.8 0 0 0 7.9 22.7c1.4 1.7 2.9 3.3 4.3 4.7l.4.4c-1.6 1.6-1.8 3.7-.8 6.4A37.1 37.1 0 0 0 54 138.1l-4.8 2a58.2 58.2 0 0 1-26.6 3.3c-3.2-.4-5 .6-6.6 3.6l-.2.5v3.4l.5.6.5.6a8.2 8.2 0 0 0 1.9 1.8 95.4 95.4 0 0 0 45.1 14.8c2.2.2 4.4.2 6.7.2a97.9 97.9 0 0 0 20.1-2 91 91 0 0 0 52.3-30.7c15.6-18.3 23.5-40 23.7-64.5 0-.5 0-.6.4-.9l1.9-1.5c4.1-3.2 6.8-5.3 10.3-10.5a7.4 7.4 0 0 0 1.2-2.8 4.8 4.8 0 0 0-1.2-4.1zm-16.3 9.8l-1.3.8c-2.7 1.6-5.7 4.1-5.7 8.8.1 24.4-9 45.7-27.1 63.4-11.8 11.6-26.4 18.9-43.6 21.7a90.2 90.2 0 0 1-24.2.8 85.2 85.2 0 0 1-17.1-3.8 69.1 69.1 0 0 0 27.5-12.8c3.1-2.3 3.1-4.8 2.5-6.5s-2-3.8-5.8-4a25.6 25.6 0 0 1-19.9-10.5l5.6-.9c3.2-.7 5.1-2.7 5-5.7s-.9-4.5-4.9-5.5c-9.8-2.5-16.1-8.3-19.2-17.6h.7a57.7 57.7 0 0 0 6 .9 5.6 5.6 0 0 0 6.1-3.8c.7-2.4-.3-4.8-2.6-6.5-8.1-5.7-11.8-13.5-11.3-23.7.1-1.1.3-2.2.5-3.4h.2l5.6 5.2A94.9 94.9 0 0 0 77 78.4a98.2 98.2 0 0 0 20.8 3.4 5.3 5.3 0 0 0 4.1-1.6 6 6 0 0 0 1.6-4.4 23.4 23.4 0 0 0-.4-2.6 15 15 0 0 1-.2-2c-.9-10.4 3.1-18.5 11.9-24.3 10.3-6.9 23-6.1 31.6 2h.1a10.8 10.8 0 0 0 8.6 2 16.6 16.6 0 0 0 4.1-1.9c1.6-.8 3.5-1.9 4.7-1.9-.6 1.3-2.7 3.5-6.1 6.5s-2.6 2.4-2.2 3.6l.2.9.7.4c.8.5 1.4.4 3.6-.2 5.8-1.4 8.4-1.4 9.4-1.1a34.1 34.1 0 0 1-6.6 4.5z"/></symbol><symbol id="up" viewBox="0 0 200 200"><path d="M179.7 100.2a79.4 79.4 0 1 1-79.4-79.4 79.5 79.5 0 0 1 79.4 79.4zm-144.7 0a65.4 65.4 0 1 0 65.3-65.4A65.4 65.4 0 0 0 35 100.2z"/><path d="M142.7 113.9a6.7 6.7 0 0 1-2.1 4.9 6.9 6.9 0 0 1-9.9 0l-30.4-30.4-30.4 30.4a6.9 6.9 0 0 1-9.9 0 7.1 7.1 0 0 1 0-9.9l35.4-35.3a7.1 7.1 0 0 1 9.9 0l35.3 35.3a7 7 0 0 1 2.1 5z"/></symbol></svg>