<svg xmlns="http://www.w3.org/2000/svg"><symbol id="logo-emailicons-" viewBox="0 0 144 144"><path d="M75.8 105.1H35.7a3.3 3.3 0 0 1-2.4-3.1V44a3.3 3.3 0 0 1 3.5-3.6l60.8.3h17.1a3.4 3.4 0 0 1 3.6 3.6v57a3.5 3.5 0 0 1-3.7 3.7zm32-6.6L86 72.9h-.3l-8 6.7a3.3 3.3 0 0 1-4.6.1l-5.4-4.5-2-1.6-21.8 24.9zM75.4 73l30.5-25.5h-.1l-60.1-.3h-.1zm-14.5-3.8l-21-18.3v42.2zm30.1-.6l20.7 24.3V51.2z"/></symbol><symbol id="logo-facebookicons-" viewBox="0 0 144 144"><path d="M61.7 137.1s.3-30.8.5-47c0-1.6-.5-1.9-1.9-1.9h-14c-1.5 0-1.9-.5-1.9-1.9.2-5.7.2-11.4.2-17.1 0-1.5.5-2.1 2.1-2h13.1c2.6 0 2.5 0 2.6-2.6.3-6.4.1-13 1.1-19.3a21.7 21.7 0 0 1 14.9-18.1c8.5-3.1 17.3-1.7 26-1 1.5.2 1.3 1.2 1.3 2.2 0 4.9-.1 9.8-.1 14.7 0 1.9-.8 2.3-2.5 2.3-3.7-.1-7.4-.2-11.2-.1s-6.7 2.3-7.1 6.3-.4 8-.5 12-.1 3.8 3.7 3.9l14.7.2c.8 0 2-.2 1.8 1.1-.9 6.2-1.7 12.3-2.6 18.4-.1 1.2-.7 1.5-1.9 1.5l-13.7-.2c-1.7-.1-2.4.3-2.4 2.2-.1 16-.5 46.5-.5 46.5z"/></symbol><symbol id="logo-instagramicons-" viewBox="0 0 144 144"><path d="M25.3 75c0-7.7-.2-15.4.5-23.1A22.5 22.5 0 0 1 45.6 31a118.6 118.6 0 0 1 15.8-.7H83a38.1 38.1 0 0 1 12.9 2.3 17.7 17.7 0 0 1 5.9 3.5 27.2 27.2 0 0 1 3 2.9 25.7 25.7 0 0 1 5.2 15.4c.6 11.2.4 22.4.2 33.7-.1 4.4-.4 8.8-2.2 12.9a18.7 18.7 0 0 1-3.6 5.9 2.6 2.6 0 0 0-.7-1.1 5.2 5.2 0 0 1-1.7-2.9c-.3-1.4-1.2-2.4-1.6-3.6 1.9-3.9 2-8.1 2.1-12.3.1-8 .1-16.1.1-24.2a66.8 66.8 0 0 0-.7-11.8c-1.3-6.3-5-10.4-11.4-12a35.3 35.3 0 0 0-8.6-.8h-27a42.4 42.4 0 0 0-10 1c-5.2 1.4-8.9 4.5-10.6 9.7a37.3 37.3 0 0 0-1.2 9.9C33 63.5 33 68.3 33 73c-1.5 0-2.7.9-4.1 1.3a6.6 6.6 0 0 1-2 .6 2.9 2.9 0 0 0-1.6.1z"/><path d="M25.3 75a2.9 2.9 0 0 1 1.6-.2 6.6 6.6 0 0 0 2-.6c1.4-.4 2.6-1.3 4.1-1.3 0 4 0 8 .1 12a78.7 78.7 0 0 0 .4 8.4c.6 3.9 1.9 7.3 4.9 10.1a16.4 16.4 0 0 0 7.9 3.7 36.4 36.4 0 0 0 7.4.5h24.1a97.7 97.7 0 0 0 10.8-.6c5.1-.8 9.2-3.1 11.8-7.8.4 1.2 1.3 2.2 1.6 3.6a5.2 5.2 0 0 0 1.7 2.9 2.6 2.6 0 0 1 .7 1.1 22.8 22.8 0 0 1-15.9 8c-9.1.9-18.3.4-27.5.5-4.6 0-9.2-.1-13.8-.5-11.9-1-20.4-9.5-21.5-21.5-.5-6-.4-12.1-.4-18.3zM46 71.2c.3-8.6 7.2-17.1 16-19.4a21.7 21.7 0 0 1 24.3 9.4 21.4 21.4 0 0 1 2.9 16.4 18.6 18.6 0 0 1-2.3 5.9c-.5-.5-.5-1.2-1.1-1.6a33.5 33.5 0 0 0-5.2-3 14.1 14.1 0 0 0-4-17.1c-4.7-3.6-9.8-4.2-15.1-1.5a13.9 13.9 0 0 0-7.8 10.9c-2.6.2-5.1-.6-7.7 0z"/><path d="M46 71.2c2.6-.6 5.1.2 7.7 0-.3 4.7 1 8.9 4.5 12 7.3 6.5 17.8 4.5 22.4-4.3a33.5 33.5 0 0 1 5.2 3c.6.4.6 1.1 1.1 1.6-3.5 6.1-8.7 9.9-15.7 10.9-8.6 1.3-15.7-1.7-21-8.5A20.9 20.9 0 0 1 46 71.2zm44.5-15.9a5.1 5.1 0 0 1-5.1-5.1 5.1 5.1 0 0 1 5.1-5.2 5.3 5.3 0 0 1 5.2 5.2 5.2 5.2 0 0 1-5.2 5.1z"/></symbol><symbol id="logo-locationicons-" viewBox="0 0 144 144"><path d="M71.8 21.9H75l2.5.2a34.8 34.8 0 0 1 30.3 39.4 38.9 38.9 0 0 1-2.1 8.3 108.5 108.5 0 0 1-7.9 17.8 276.2 276.2 0 0 1-24.1 36.7l-.3.2-.3-.3a295.1 295.1 0 0 1-19.2-28C48.5 87.2 43.7 78 40.5 68a35.9 35.9 0 0 1 .7-24.6 35.2 35.2 0 0 1 28.1-21.3zm1.6 51.8a17.1 17.1 0 1 0-17-17 17.1 17.1 0 0 0 17 17z"/></symbol><symbol id="logo-phoneicons-" viewBox="0 0 144 144"><path d="M106.4 111.1c-3.8 1.6-7.5 3.1-11.2 4.4a15.6 15.6 0 0 1-13-.8 36.4 36.4 0 0 1-6.3-3.8C61 98.2 50.6 83 49 62.8c-.3-4.5-.8-9-.8-13.4-.2-7.4 3.7-12.7 10.7-15.1a72.9 72.9 0 0 1 7.4-1.8c.2 5.2.4 9.9.5 14.6a71.2 71.2 0 0 1 .1 8 4.4 4.4 0 0 1-1.4 3c-3.2 2.8-4 5.8-2 9.6 4.5 8.5 9.1 17.1 13.7 25.5 1.9 3.5 4.2 4.2 8 3.2a3.9 3.9 0 0 1 3.2.3c5.9 4.4 11.6 9 17.3 13.5.2.1.3.3.7.9z"/><path d="M108.4 109.7l-20-15.8c1.9-1 3.4-2.1 5.1-2.5a4.2 4.2 0 0 1 3.4.7c4.1 2.8 7.9 5.9 11.9 8.9a3.2 3.2 0 0 1 1.1 4.1c-.5 1.4-.9 2.9-1.5 4.6zM68.1 33c4.1-.6 7.1 1.9 7.1 5.5s.1 8.4.1 12.6a5.9 5.9 0 0 1-4 5.5c-1.2.4-2.2.2-2.3-1.2-.4-7.5-.6-14.9-.9-22.4z"/></symbol><symbol id="logo-twittericons-" viewBox="0 0 144 144"><path d="M30.5 104.1a39.1 39.1 0 0 0 27.3-7.9A18.6 18.6 0 0 1 47 92.4a17.4 17.4 0 0 1-6.6-9.3 17.9 17.9 0 0 0 8-.3c-9.2-2.8-14.1-8.9-14.7-18.7a19.3 19.3 0 0 0 8.4 2.4A19.2 19.2 0 0 1 34.4 55a18.8 18.8 0 0 1 2.1-13.5c10.1 12 22.9 18.5 38.6 19.6-.1-1-.3-2-.4-3a18.8 18.8 0 0 1 20.1-20 17.9 17.9 0 0 1 11.5 5.1 1.7 1.7 0 0 0 1.9.5 40 40 0 0 0 10.8-4.3 18.9 18.9 0 0 1-7.7 10.2 34.3 34.3 0 0 0 10-2.6l.2.2c-1.5 1.8-3 3.6-4.6 5.3s-2.8 2.4-4.1 3.6-.6.8-.5 1.1a54.3 54.3 0 0 1-10.2 33.1 49.9 49.9 0 0 1-30.3 20.6 53.9 53.9 0 0 1-20 1 54.6 54.6 0 0 1-21-7.5z"/></symbol></svg>