<svg xmlns="http://www.w3.org/2000/svg" width="86.4" height="86.4" viewBox="0 0 67.7 68"><path fill="#231f20" d="M16.4 36.6a2.1 2.1 0 0 1 .6 1.6v2.7a3.3 3.3 0 0 1-.8 2.2 3.3 3.3 0 0 1-2.2.8H5.9l-2.1-2.1.2-.3h7.8a2.6 2.6 0 0 0 2.9-2.8v-2.5a2.5 2.5 0 0 0-1.6-2.4 2.6 2.6 0 0 0 1.4-2.3v-2.2a3 3 0 0 0-.5-2l2.2 2.2a2.5 2.5 0 0 1 .7 1.9v2.2a2.7 2.7 0 0 1-1.3 2.3zm-5.3-7.7a.7.7 0 0 1 .7.7v1.7H9v1.4H6.7v-3.8zM11 35c.6 0 1 0 1 .7v1.7H9v1.7H6.7V35zm19.3-5.6a3 3 0 0 1 .6 2v9.5a2.9 2.9 0 0 1-3 3.1h-5.3a3.2 3.2 0 0 1-2.4-1.1l-1.7-1.7a3.1 3.1 0 0 0 2 .4h5.2a2.5 2.5 0 0 0 2.8-2.8v-9.6a3.8 3.8 0 0 0-.4-2zm-5.2-.5c.5 0 .8.2.8.7v1.6h-2.5a.7.7 0 0 0-.7.8v7.1h-1.6c-.5 0-.8-.2-.8-.7v-8.8c0-.5.3-.7.8-.7zm11.8 15H34l-2.2-2.1.2-.3h2.5V30.6l2.4 5.6zm-1.7-17.7l2.2 2.2 2.7 5.3-.9 1.9-4.2-9.2zm5.1 15.2l-2.2-2.1.2-.2h1.8l3.8-8.2v7.4l-1.4 3.1zm5.6 2.5l-2.2-2.1.2-.3h2.5V26.4l.3-.2 2.1 2.2v15.5zm16.8-7.3a2.1 2.1 0 0 1 .6 1.6v2.7a3.3 3.3 0 0 1-.8 2.2 3.1 3.1 0 0 1-2.2.8h-8.1l-2.1-2.1.2-.3h7.8a2.6 2.6 0 0 0 2.9-2.8v-2.5a2.5 2.5 0 0 0-1.6-2.4 2.6 2.6 0 0 0 1.4-2.3v-2.2a3 3 0 0 0-.5-2l2.2 2.2a2.5 2.5 0 0 1 .7 1.9v2.2a2.8 2.8 0 0 1-1.2 2.3zm-5.3-7.7a.6.6 0 0 1 .7.7v1.7h-2.8v1.4H53v-3.8zm-.1 6.1c.6 0 1 0 1 .7v1.7h-3v1.7H53V35zm-31 20.4c0 1.7.1 2.7 1.7 2.7s1.8-.9 1.9-2.4l3.6.8c0 1.5-.3 5.4-5.5 5.4s-5.5-3.9-5.5-5.4V51c0-1.4.3-5.3 5.5-5.3s5.5 3.9 5.5 5.3l-3.6.9c-.1-1.6-.3-2.4-1.9-2.4s-1.7 1-1.7 2.7zm19.5 1.1c0 1.5-.3 5.4-5.5 5.4s-5.5-3.9-5.5-5.4V51c0-1.4.3-5.3 5.5-5.3s5.5 3.9 5.5 5.3zM42 52.2c0-1.7-.1-2.7-1.7-2.7s-1.8 1-1.8 2.7v3.2c0 1.7.2 2.7 1.8 2.7s1.7-1 1.7-2.7zm11.5-6.1l1.8 7.5 1.8-7.5h5.8v15.4h-3.8V51.2l-2.5 10.3H54l-2.5-10.3v10.3h-3.8V46.1z"/><circle cx="12.5" cy="53.7" r="8.5" fill="#231f20"/><path fill="#231f20" d="M11.5 6.8c4.8 0 6.6 2 6.6 6.1a6.2 6.2 0 0 1-1.3 3.7 3.6 3.6 0 0 1 1.8 3.3c0 3.1-1.4 4.7-6.2 4.7h-7V6.8zm.6 14.2c1.2 0 1.8-.2 1.8-1.4s-.5-1.3-1.7-1.3H9.7V21zm-.2-6.4c1.2 0 1.8-.1 1.8-1.7s-.6-1.7-1.8-1.7H9.8v3.4zm20.7 10h-4.4v-3.8h-3.7v3.8h-4.4V13c0-3.2.5-6.6 6.2-6.6s6.3 3.4 6.3 6.6zM28.2 13c0-1.3-.2-1.9-1.9-1.9s-1.8.6-1.8 1.9v3.5h3.7zm10.3-1.8h-5.1V6.8h14.5v4.4h-5v13.4h-4.4zm15.3-4.4v7.9h4V6.8h4.3v17.8h-4.3V19h-4v5.6h-4.3V6.8z"/><path fill="none" stroke="#231f20" stroke-miterlimit="10" stroke-width="1.38" d="M1.7 3.4h64v61.36h-64z"/></svg>