<svg xmlns="http://www.w3.org/2000/svg" width="3.8in" height="3.8in" viewBox="0 0 270 270"><path fill="#231f20" d="M65.9 143.8a9 9 0 0 1 2.5 6.4v10.5a12.1 12.1 0 0 1-3.4 8.9 12.7 12.7 0 0 1-8.9 3.4H24l-8.7-8.6.9-.9h31.3c7.2 0 11.4-4.1 11.4-11.4v-10.2a9.9 9.9 0 0 0-6.2-9.3c4-2.4 5.5-5.6 5.5-9.4v-8.8c0-3.9-.7-6.6-1.8-8l8.7 8.7c1.9 1.9 2.6 4.9 2.6 8v8.8a10.2 10.2 0 0 1-4.9 9zm-21.4-30.9a2.6 2.6 0 0 1 3 2.9v6.6H36.4v5.5h-9.5v-15zm-.3 24.3c2.4 0 4 .2 4 2.8v6.7H36.4v7h-9.5v-16.5zm77.1-22.4c1.9 1.9 2.6 4.8 2.6 7.9v38.4c0 7.2-5 12.3-12.2 12.3H90.8c-4.3 0-6.9-1.6-9.6-4.4l-7-7c2.1 1.8 4.8 1.8 8 1.8H103c7.3 0 11.4-4.1 11.4-11.4v-38.3c0-4.9-1.5-7.7-1.8-8zm-20.5-2.1a2.6 2.6 0 0 1 2.9 2.9v6.6h-9.8a2.6 2.6 0 0 0-2.9 2.9v28.7h-6.6a2.6 2.6 0 0 1-2.9-2.9v-35.3a2.6 2.6 0 0 1 2.9-2.9zm47 60.3h-11.7l-8.6-8.6.8-.9h10v-43.8l9.5 22.4zm-6.7-70.8l8.6 8.6 10.8 21.4-3.3 7.5-17-36.7zm20.2 60.9l-8.6-8.7.9-.8h7.2l14.9-32.7v29.6l-5.4 12.6zm22.5 9.9l-8.7-8.6.9-.9h10V103l.9-.8 8.6 8.6V173zm67.3-29.2a9 9 0 0 1 2.5 6.4v10.5a12.1 12.1 0 0 1-3.4 8.9 12.4 12.4 0 0 1-8.9 3.4h-32.1l-8.7-8.6.9-.9h31.3c7.2 0 11.4-4.1 11.4-11.4v-10.2a9.9 9.9 0 0 0-6.1-9.3 10.3 10.3 0 0 0 5.4-9.4v-8.8c0-3.9-.7-6.6-1.8-8l8.7 8.7c1.9 1.9 2.6 4.9 2.6 8v8.8a10.3 10.3 0 0 1-4.8 9zm-21.4-30.9a2.6 2.6 0 0 1 3 2.9v6.6h-11.1v5.5h-9.5v-15zm-.3 24.3c2.4 0 4 .2 4 2.8v6.7h-11.8v7h-9.5v-16.5zm-124.1 81.6c0 6.7.5 10.8 7 10.8s7.1-3.4 7.5-9.4l14.5 3.2c0 5.8-1.3 21.3-22 21.3s-22-15.5-22-21.3v-21.9c0-5.8 1.2-21.3 22-21.3s22 15.5 22 21.3l-14.5 3.2c-.4-6-1.1-9.4-7.5-9.4s-7 4.1-7 10.8zm78 4.6c0 5.8-1.2 21.3-22 21.3s-22-15.5-22-21.3v-21.9c0-5.8 1.3-21.3 22-21.3s22 15.5 22 21.3zm-15-17.3c0-6.7-.5-10.8-7-10.8s-6.9 4.1-6.9 10.8v12.7c0 6.7.5 10.8 6.9 10.8s7-4.1 7-10.8zm46-24.3l7.2 30 7.3-30h23.1v61.3h-15.1v-41l-10 41h-10.5l-10-41v41h-15.1v-61.3z"/><circle cx="50.2" cy="211.9" r="33.9" fill="#231f20"/><path fill="#fff" d="M34.1 201.5c5.3 0 7 2.1 7 6.7v6.1c0 4.5-1.7 6.7-7 6.7h-7v-19.5zm.1 14.7c1.4 0 2-.2 2-1.9v-6.1c0-1.8-.6-1.9-2-1.9h-2.3v9.9zm23.1-1.5c0 1.8-.4 6.8-7 6.8s-7-5-7-6.8v-7c0-1.8.4-6.7 7-6.7s7 4.9 7 6.7zm-4.8-5.5c0-2.1-.1-3.4-2.2-3.4s-2.2 1.3-2.2 3.4v4c0 2.2.2 3.5 2.2 3.5s2.2-1.3 2.2-3.5zm11.5-2.9h-5.6v-4.8h15.9v4.8h-5.5V221H64z"/><path fill="#231f20" d="M46.2 24.6c19.1 0 26.4 7.7 26.4 24.3 0 3.5-1.1 10.2-5.2 14.7 4.1 2 7.2 7 7.2 13.3 0 12.6-5.6 18.7-24.6 18.7H21.9v-71zm2.4 56.6c4.9 0 7.3-.5 7.3-5.3s-2.2-5.5-7.1-5.5h-9.6v10.8zm-.8-25.4c4.9 0 7.3-.6 7.3-6.9s-2.4-6.8-7.3-6.8h-8.5v13.7zm82.6 39.8H113V80.7H98.2v14.9H80.8V49.1c0-12.7 2-26.3 24.8-26.3s24.8 13.6 24.8 26.3zM113 49.1c0-4.8-.7-7.3-7.4-7.3s-7.4 2.5-7.4 7.3v14H113zm41.3-7H134V24.6h58v17.5h-20.3v53.5h-17.4zm61.2-17.5V56h15.8V24.6h17.4v71h-17.4V73.5h-15.8v22.1H198v-71z"/><path fill="none" stroke="#231f20" stroke-miterlimit="10" stroke-width="5.51" d="M7 11.1h256v245.43H7z"/></svg>